<svg xmlns="http://www.w3.org/2000/svg" version="1.0" preserveAspectRatio="xMidYMid meet" viewBox="1 11.2 398.43 377.69">

<g transform="translate(0.000000,400.000000) scale(0.100000,-0.100000)" fill="#3f51b5" stroke="none">
<path d="M1905 3884 c-16 -2 -73 -9 -125 -15 -255 -28 -549 -127 -800 -270 -466 -265 -825 -748 -930 -1254 -74 -355 -45 -714 85 -1050 55 -142 112 -250 211 -400 214 -322 495 -538 849 -653 187 -61 281 -76 493 -76 171 -1 185 0 198 18 16 23 17 35 5 55 -8 12 -44 15 -183 17 -132 1 -197 7 -275 23 -323 67 -595 217 -808 443 -171 183 -356 498 -423 723 -59 196 -73 300 -73 520 1 340 71 581 244 840 375 561 1018 907 1687 907 234 1 423 -36 633 -121 257 -105 453 -247 666 -481 321 -354 508 -847 488 -1283 -17 -344 -148 -678 -373 -948 -90 -108 -306 -313 -403 -383 -210 -151 -501 -258 -766 -281 -83 -7 -115 -23 -115 -56 0 -10 8 -25 17 -35 15 -14 30 -16 112 -9 346 25 672 157 944 382 405 335 661 785 726 1275 15 107 -3 360 -35 516 -105 509 -426 988 -864 1287 -185 127 -479 245 -709 287 -110 20 -396 33 -476 22z" fill="#3f51b5"/>
<path d="M1894 2676 c-256 -48 -459 -290 -456 -544 2 -161 71 -291 204 -385 68 -48 70 -42 -38 -107 -72 -44 -199 -167 -247 -240 -57 -88 -81 -169 -81 -280 -1 -110 14 -157 52 -167 34 -8 62 26 62 77 0 56 32 150 71 206 33 49 266 310 332 373 l35 33 80 -9 c97 -11 118 -5 127 38 10 43 -7 55 -91 64 -87 9 -190 61 -245 123 -80 90 -121 228 -98 326 47 202 219 325 438 314 109 -5 177 -35 245 -108 62 -66 92 -135 106 -242 19 -141 -14 -249 -102 -337 -42 -43 -146 -101 -180 -101 -24 0 -58 -35 -58 -59 0 -11 8 -27 17 -36 20 -21 88 -14 160 14 l46 18 27 -31 c81 -92 214 -328 270 -479 34 -90 54 -113 90 -102 36 11 42 38 30 133 -36 277 -120 425 -309 549 -2 1 12 21 32 45 40 49 82 130 103 197 22 69 28 205 15 288 -50 292 -337 485 -637 429z" fill="#3f51b5"/>
<path d="M759 2415 c-157 -51 -265 -171 -305 -341 -21 -91 -14 -208 19 -296 26 -67 68 -141 87 -153 7 -4 -15 -31 -54 -66 -82 -75 -101 -107 -126 -208 -22 -88 -19 -109 24 -143 49 -40 69 -25 141 107 70 128 139 225 155 218 147 -60 286 -56 420 12 91 47 200 155 200 200 0 23 -28 55 -48 55 -6 0 -40 -25 -74 -56 -94 -84 -152 -108 -263 -109 -76 0 -98 4 -145 26 -115 54 -166 129 -177 259 -4 53 -1 83 16 140 36 118 79 172 166 211 102 46 292 18 384 -56 48 -38 71 -43 95 -20 20 20 12 41 -38 93 -82 87 -191 131 -336 138 -67 3 -109 0 -141 -11z" fill="#3f51b5"/>
<path d="M3005 2424 c-62 -10 -185 -56 -227 -86 -102 -72 -128 -116 -92 -152 21 -22 25 -21 70 15 85 67 174 94 292 87 130 -8 205 -59 261 -178 23 -48 26 -68 26 -155 0 -139 -25 -200 -106 -260 -138 -102 -328 -83 -463 45 -43 40 -60 51 -82 48 -34 -4 -49 -27 -40 -62 12 -47 123 -149 210 -192 73 -36 87 -39 180 -42 83 -3 112 0 163 17 34 12 67 21 73 21 13 0 124 -168 175 -265 41 -77 55 -90 91 -81 27 7 64 60 64 92 0 37 -48 162 -79 208 -17 25 -54 64 -81 87 l-50 42 24 26 c13 14 36 50 50 78 122 245 30 556 -199 669 -61 30 -85 36 -151 39 -44 2 -92 1 -109 -1z" fill="#3f51b5"/>
</g>
</svg>