<svg xmlns="http://www.w3.org/2000/svg" version="1.0" preserveAspectRatio="xMidYMid meet" viewBox="91.6 15.99 332.7 480.01">

<g transform="translate(0.000000,512.000000) scale(0.100000,-0.100000)" fill="#000000" stroke="none">
<path d="M1775 4944 c-277 -43 -509 -158 -696 -345 -66 -66 -96 -105 -125 -164 -36 -73 -38 -83 -38 -169 0 -83 4 -101 46 -211 116 -309 278 -632 434 -863 l42 -64 -26 -56 c-53 -116 -39 -268 35 -382 48 -73 221 -244 308 -305 39 -27 74 -52 79 -56 5 -4 -18 -63 -52 -131 -124 -253 -190 -477 -238 -818 -11 -81 -17 -224 -21 -482 l-5 -366 25 -26 c34 -34 79 -34 112 -1 25 24 25 27 25 200 l0 175 80 0 80 0 0 -175 c0 -173 0 -176 25 -200 32 -33 78 -33 110 0 25 24 25 27 25 200 l0 175 80 0 80 0 0 -335 0 -336 25 -24 c32 -33 78 -33 110 0 25 24 25 27 25 200 l0 175 80 0 80 0 0 -175 c0 -173 0 -176 25 -200 32 -33 78 -33 110 0 25 24 25 27 25 200 l0 175 80 0 80 0 0 -175 c0 -173 0 -176 25 -200 32 -33 78 -33 110 0 25 24 25 27 25 200 l0 175 80 0 80 0 0 -175 c0 -173 0 -176 25 -200 32 -33 78 -33 110 0 25 24 25 27 25 200 l0 175 80 0 80 0 0 -175 c0 -173 0 -176 25 -200 32 -33 78 -33 110 0 25 24 25 27 25 200 l0 175 80 0 80 0 0 -175 c0 -173 0 -176 25 -200 15 -16 36 -25 55 -25 19 0 40 9 55 25 25 24 25 27 25 200 l0 175 80 0 80 0 0 -175 c0 -173 0 -176 25 -200 33 -33 78 -33 112 1 l26 26 -6 311 c-5 308 -18 484 -57 787 -126 961 -378 1680 -716 2039 l-74 79 60 115 c127 242 263 576 275 678 16 130 -36 249 -165 379 -189 190 -419 302 -703 344 -142 22 -945 21 -1082 0z m835 -155 c0 -61 -260 -589 -290 -589 -30 0 -290 528 -290 589 0 8 90 11 290 11 200 0 290 -3 290 -11z m-711 -109 c65 -183 197 -449 293 -589 27 -38 29 -47 18 -65 -27 -44 -182 -246 -270 -351 -101 -122 -379 -425 -389 -425 -12 1 -146 228 -227 385 -95 183 -168 351 -219 499 -40 116 -41 132 -20 203 29 97 205 260 369 342 123 61 301 112 375 108 33 -2 34 -3 70 -107z m1072 80 c187 -48 336 -134 476 -275 77 -77 94 -101 107 -145 22 -73 21 -88 -15 -194 -99 -297 -309 -705 -505 -981 -168 -236 -353 -448 -534 -610 -122 -110 -266 -225 -281 -225 -18 0 -137 49 -215 88 -111 56 -223 142 -334 258 -105 110 -130 155 -130 234 0 89 24 125 203 309 273 281 466 517 651 796 175 264 270 445 345 660 17 50 34 96 36 104 7 17 83 10 196 -19z m405 -1552 c365 -435 616 -1318 697 -2445 l3 -43 -878 0 -878 0 0 739 0 738 118 94 c287 229 563 534 787 872 43 64 81 117 84 117 4 0 34 -33 67 -72z m-1297 -1000 l81 -31 0 -569 0 -568 -241 0 -241 0 6 103 c26 398 108 727 249 1000 28 53 54 97 58 97 4 0 44 -14 88 -32z"/>
</g>
</svg>