<?xml version="1.0" encoding="UTF-8" standalone="no"?>
<svg
   version="1.0"
   width="377.62579pt"
   height="399.84915pt"
   viewBox="0 0 377.62579 399.84915"
   preserveAspectRatio="xMidYMid"
   id="svg5"
   xmlns="http://www.w3.org/2000/svg"
   xmlns:svg="http://www.w3.org/2000/svg">
  <defs
     id="defs5" />
  <g
     transform="matrix(0.1,0,0,-0.1,-11.000003,399.99732)"
     fill="#03a9f4"
     stroke="none"
     id="g5"
     style="fill:#2196f3;fill-opacity:1">
    <path
       d="m 1546,3978 c -22,-31 -21,-39 20,-121 20,-39 63,-135 95,-211 132,-315 233,-422 520,-551 166,-75 301,-150 344,-193 51,-52 80,-117 79,-181 0,-46 -4,-57 -28,-77 -41,-36 -131,-34 -214,6 l -62,29 -20,-39 c -11,-22 -20,-43 -20,-47 0,-5 35,-26 78,-47 67,-34 88,-40 162,-43 74,-4 91,-1 130,19 89,46 141,175 120,296 -14,82 -30,121 -76,183 -60,82 -203,171 -398,249 -110,43 -213,95 -267,135 -70,51 -130,136 -232,332 -98,187 -143,263 -161,275 -21,15 -55,8 -70,-14 z"
       fill="#03a9f4"
       id="path1"
       style="fill:#2196f3;fill-opacity:1" />
    <path
       d="m 556,3798 c -9,-12 -16,-26 -16,-31 0,-5 20,-41 44,-81 67,-107 113,-212 234,-541 172,-465 226,-597 250,-613 30,-20 70,-8 78,23 10,40 -115,554 -173,710 -71,190 -201,395 -321,508 -57,53 -74,57 -96,25 z"
       fill="#03a9f4"
       id="path2"
       style="fill:#2196f3;fill-opacity:1" />
    <path
       d="m 1709,2560 c -25,-4 -64,-17 -87,-29 -96,-49 -348,-277 -448,-405 l -31,-40 -32,67 c -55,116 -144,162 -264,137 -114,-23 -236,-148 -268,-273 -20,-75 -15,-252 12,-408 14,-83 23,-179 23,-254 l 1,-120 -38,-70 C 557,1127 515,1064 484,1025 301,798 110,526 110,492 c 0,-26 42,-56 68,-48 10,3 53,56 96,117 43,61 132,178 199,261 164,202 191,241 229,328 44,103 48,212 18,455 -27,218 -25,356 7,426 43,95 145,160 202,128 41,-23 63,-79 69,-180 6,-106 26,-139 85,-139 32,0 46,12 173,151 267,292 424,419 518,419 30,0 94,-31 108,-54 21,-32 -7,-133 -61,-217 -29,-47 -41,-55 -294,-211 -102,-62 -137,-97 -137,-134 0,-53 62,-103 113,-90 13,3 99,53 191,111 210,132 373,205 460,205 26,0 28,-2 22,-27 -15,-65 -78,-173 -124,-214 -42,-37 -163,-101 -391,-208 -98,-46 -141,-87 -141,-135 0,-50 13,-72 51,-85 56,-19 84,-13 175,44 126,78 399,214 464,231 104,27 222,10 228,-35 6,-37 -43,-103 -115,-157 -81,-61 -168,-111 -398,-227 -93,-47 -206,-110 -250,-139 C 1505,956 1322,740 1153,453 1110,380 1046,274 1011,218 909,53 903,43 916,23 922,13 941,4 958,2 c 29,-3 35,3 119,130 48,73 125,194 171,268 166,270 313,443 467,550 43,29 151,87 239,127 350,160 519,270 581,377 13,23 31,68 40,100 22,75 10,121 -42,166 -45,40 -88,58 -173,75 -36,6 -64,16 -63,21 2,5 19,55 39,112 33,96 35,107 24,151 -26,109 -134,152 -286,115 -21,-5 -21,-3 -16,84 4,79 2,96 -17,136 -52,106 -195,169 -332,146 z"
       fill="#03a9f4"
       id="path3"
       style="fill:#2196f3;fill-opacity:1" />
    <path
       d="m 2730,2443 c -42,-13 -64,-31 -91,-74 l -30,-46 -44,16 c -40,14 -48,14 -99,-2 -57,-18 -116,-59 -116,-81 0,-34 27,-48 124,-61 55,-8 102,-18 106,-22 3,-4 12,-51 18,-103 13,-113 50,-259 93,-373 41,-108 63,-126 110,-88 l 23,19 -32,103 c -51,165 -65,243 -66,374 -1,187 26,226 101,141 67,-77 109,-219 163,-547 36,-226 66,-332 129,-465 89,-186 169,-289 493,-631 223,-235 245,-252 270,-198 10,23 6,32 -52,108 -35,45 -121,152 -190,237 -358,438 -415,555 -480,975 -38,245 -79,395 -145,524 -65,129 -202,222 -285,194 z"
       fill="#03a9f4"
       id="path4"
       style="fill:#2196f3;fill-opacity:1" />
    <path
       d="m 1898,733 c -44,-5 -62,-24 -54,-57 5,-19 14,-26 39,-30 282,-40 432,-81 589,-163 114,-58 168,-102 349,-280 80,-78 152,-143 160,-143 37,0 64,44 45,76 -20,35 -197,267 -255,333 -125,143 -295,229 -516,261 -67,9 -279,11 -357,3 z"
       fill="#03a9f4"
       id="path5"
       style="fill:#2196f3;fill-opacity:1" />
  </g>
</svg>
