<svg xmlns="http://www.w3.org/2000/svg" version="1.0" width="400.000000pt" height="400.000000pt" viewBox="0 0 400.000000 400.000000" preserveAspectRatio="xMidYMid meet">

<g transform="translate(0.000000,400.000000) scale(0.100000,-0.100000)" fill="#96b2c3" stroke="none">
<path d="M2421 3979 c-287 -55 -554 -198 -766 -413 -326 -329 -387 -778 -159 -1171 32 -55 76 -109 143 -175 175 -173 343 -237 674 -260 89 -6 167 -13 174 -15 6 -2 44 -53 84 -112 122 -182 195 -240 375 -297 94 -30 229 -56 291 -56 35 0 49 6 68 26 32 35 31 49 -5 104 -44 66 -70 143 -77 230 -7 99 0 112 79 135 89 26 231 86 317 135 255 145 332 266 363 572 27 271 -56 567 -224 793 -151 204 -392 374 -642 454 -166 53 -219 62 -411 66 -151 4 -197 1 -284 -16z m430 -174 c191 -29 338 -86 497 -192 303 -203 462 -501 462 -865 0 -159 -24 -260 -83 -345 -58 -83 -283 -221 -464 -283 -152 -53 -202 -127 -189 -278 3 -40 16 -104 29 -142 l23 -70 -21 0 c-40 0 -177 41 -236 70 -71 37 -117 83 -225 227 -54 73 -92 114 -106 117 -13 3 -72 7 -132 11 -216 12 -405 61 -526 137 -216 136 -334 328 -370 598 -32 244 86 526 294 703 308 261 666 368 1047 312z" fill="#96b2c3"/>
<path d="M2045 3076 c-40 -18 -100 -85 -115 -130 -38 -115 74 -220 197 -185 84 23 157 123 139 193 -14 57 -113 137 -168 136 -13 -1 -36 -7 -53 -14z" fill="#96b2c3"/>
<path d="M2700 3071 c-46 -15 -85 -39 -119 -75 -28 -29 -35 -44 -38 -88 -12 -164 183 -214 300 -78 62 72 59 145 -7 209 -36 35 -89 47 -136 32z" fill="#96b2c3"/>
<path d="M3285 3021 c-53 -26 -68 -40 -94 -81 -41 -69 -22 -148 50 -200 82 -59 183 -49 258 26 l43 44 -4 63 c-4 68 -21 100 -75 137 -45 31 -127 36 -178 11z" fill="#96b2c3"/>
<path d="M952 2445 c-343 -89 -654 -331 -809 -631 -94 -183 -128 -342 -120 -569 10 -289 78 -427 277 -562 104 -70 225 -129 344 -168 l101 -33 3 -67 c4 -84 -18 -156 -70 -236 -47 -74 -49 -109 -7 -151 l30 -31 92 7 c117 8 258 45 369 98 103 49 177 119 278 265 l63 92 51 5 c200 21 260 29 337 46 353 77 634 358 691 690 14 80 7 103 -34 108 -33 4 -45 -13 -69 -99 -81 -295 -303 -496 -612 -554 -48 -9 -164 -20 -257 -24 -120 -5 -173 -11 -185 -21 -10 -8 -49 -57 -88 -110 -107 -144 -167 -202 -245 -238 -55 -25 -192 -67 -192 -58 0 1 8 27 17 57 11 35 17 89 17 154 1 90 -2 106 -27 157 -34 70 -59 88 -162 117 -105 29 -302 127 -390 193 -80 60 -126 122 -152 206 -26 83 -26 398 0 492 55 194 142 344 277 479 140 138 315 241 504 296 97 27 116 38 116 65 0 18 -30 50 -46 50 -5 -1 -51 -12 -102 -25z" fill="#96b2c3"/>
<path d="M966 1758 c-149 -16 -276 -34 -283 -40 -17 -13 -17 -53 0 -65 6 -5 102 -17 212 -26 338 -29 1050 -18 1125 17 29 13 40 65 17 84 -31 26 -416 63 -641 61 -101 -1 -262 -12 -430 -31z" fill="#96b2c3"/>
<path d="M960 1173 c-134 -13 -250 -29 -257 -35 -17 -13 -17 -52 0 -66 25 -21 201 -34 512 -39 285 -4 348 -2 574 20 232 22 256 26 272 46 18 22 16 53 -5 70 -17 15 -363 31 -621 30 -161 -1 -304 -9 -475 -26z" fill="#96b2c3"/>
</g>
</svg>