<svg xmlns="http://www.w3.org/2000/svg" version="1.0" preserveAspectRatio="xMidYMid meet" viewBox="32.07 0.31 334.88 399.47">

<g transform="translate(0.000000,400.000000) scale(0.100000,-0.100000)" fill="#54bc38" stroke="none">
<path d="M2448 3990 c-243 -44 -467 -210 -568 -422 l-47 -98 -51 59 c-112 128 -293 231 -470 266 -55 11 -285 8 -348 -5 -172 -35 -307 -144 -387 -310 -76 -159 -107 -292 -107 -456 0 -212 58 -399 183 -584 252 -376 635 -682 1057 -845 96 -38 120 -34 120 16 0 25 -6 32 -37 45 -416 171 -765 454 -1009 819 -127 191 -169 327 -168 535 2 150 23 241 88 375 91 186 204 255 422 255 240 0 417 -88 584 -292 88 -108 115 -122 177 -92 34 17 46 34 113 168 86 170 135 231 244 304 90 61 177 92 276 99 289 21 504 -193 576 -574 31 -164 6 -421 -61 -629 -82 -250 -283 -558 -474 -722 -102 -88 -180 -139 -326 -213 -111 -56 -130 -69 -133 -91 -4 -35 24 -61 57 -53 66 15 312 149 411 223 377 284 622 733 671 1227 23 242 -30 483 -153 693 -42 73 -158 190 -223 226 -119 66 -297 98 -417 76z" fill="#54bc38"/>
<path d="M1846 3145 c-22 -23 -46 -116 -46 -182 l0 -58 -50 -18 c-217 -77 -243 -313 -45 -412 l60 -30 205 2 c176 2 207 0 222 -14 79 -72 -125 -195 -327 -197 -83 -1 -94 3 -192 65 -38 24 -65 19 -81 -16 -16 -36 -7 -50 62 -99 69 -49 138 -76 196 -76 40 0 40 0 40 -38 0 -60 43 -155 74 -166 20 -8 30 -6 43 7 20 20 42 92 50 163 l5 51 68 22 c97 31 182 89 216 147 74 125 16 270 -125 311 -47 13 -86 15 -248 9 l-192 -8 -26 26 c-33 34 -32 71 4 104 53 50 192 92 303 92 72 0 79 2 94 26 15 23 16 27 2 41 -19 18 -83 32 -150 33 l-48 0 0 46 c0 66 -36 159 -66 173 -31 14 -30 14 -48 -4z" fill="#54bc38"/>
<path d="M1900 1592 c-33 -27 -39 -87 -29 -302 13 -293 27 -453 50 -575 11 -60 22 -128 25 -150 5 -38 5 -39 -11 -20 -87 109 -132 158 -200 217 -202 176 -361 242 -585 241 -130 0 -222 -18 -385 -78 -208 -77 -300 -105 -341 -105 -58 0 -93 -31 -101 -88 -6 -42 -4 -45 54 -101 47 -46 87 -72 199 -126 76 -37 184 -93 239 -125 186 -106 384 -189 605 -252 110 -32 122 -33 280 -32 152 0 172 2 250 28 135 43 121 46 154 -29 30 -70 62 -101 94 -91 28 9 44 50 32 82 -13 33 -13 34 5 28 8 -4 36 8 62 24 82 53 176 92 284 118 271 66 556 171 659 242 133 93 256 236 333 387 107 210 128 448 48 534 -44 47 -82 48 -260 11 -86 -18 -203 -39 -261 -47 -272 -36 -478 -131 -658 -305 -133 -128 -248 -367 -285 -593 -16 -95 -17 -93 -47 140 -12 88 -37 259 -56 380 -28 177 -74 535 -74 573 0 7 -42 32 -54 32 -2 0 -14 -8 -26 -18z m1597 -380 c-12 -125 -68 -252 -175 -396 -141 -190 -305 -286 -692 -406 -195 -60 -266 -89 -350 -144 -41 -27 -78 -53 -81 -58 -3 -5 -9 -2 -13 7 -10 26 -7 32 13 38 13 3 21 16 25 38 27 187 61 309 113 414 29 58 122 198 157 238 129 143 438 275 650 278 28 0 114 13 191 29 77 16 146 29 154 29 11 1 13 -12 8 -67z m-2085 -389 c115 -36 238 -122 388 -272 103 -104 230 -261 230 -285 0 -3 -33 -16 -72 -28 -63 -20 -94 -23 -228 -23 -152 1 -157 2 -266 38 -203 68 -392 158 -567 271 -48 31 -130 77 -182 103 -87 43 -113 63 -84 63 6 0 66 22 132 49 168 67 274 100 349 111 91 12 211 2 300 -27z" fill="#54bc38"/>
</g>
</svg>