<svg id="Money-Donation--Streamline-Atlas.svg" xmlns="http://www.w3.org/2000/svg" viewBox="-0.5 -0.5 16 16" height="16" width="16"><desc>Money Donation Streamline Icon: https://streamlinehq.com</desc><defs></defs><path d="m9.8875 9.2875 -4.7749999999999995 0 -4.175 0 0 -8.35 13.125 0 0 8.35 -1.7874999999999999 0" fill="none" stroke="#000000" stroke-miterlimit="10" stroke-width="1"></path><path d="M5.7125 6.90625h2.0875a0.8999999999999999 0.8999999999999999 0 0 0 0.8937499999999999 -0.8999999999999999 0.8937499999999999 0.8937499999999999 0 0 0 -0.8937499999999999 -0.8937499999999999h-0.625a0.8937499999999999 0.8937499999999999 0 0 1 -0.8937499999999999 -0.8937499999999999 0.8937499999999999 0.8937499999999999 0 0 1 0.8937499999999999 -0.8937499999999999h2.0875" fill="none" stroke="#000000" stroke-miterlimit="10" stroke-width="1"></path><path d="m7.5 2.13125 0 1.1937499999999999" fill="none" stroke="#000000" stroke-miterlimit="10" stroke-width="1"></path><path d="m7.5 6.90625 0 1.1875" fill="none" stroke="#000000" stroke-miterlimit="10" stroke-width="1"></path><path d="M11.08125 14.0625a4.074999999999999 4.074999999999999 0 0 0 1.1937499999999999 -2.88125v-2.5A1.1937499999999999 1.1937499999999999 0 0 0 11.08125 7.5a1.1875 1.1875 0 0 0 -1.1937499999999999 1.1937499999999999v1.7874999999999999l-0.125 0.0625a1.9375 1.9375 0 0 0 -1.06875 1.73125" fill="none" stroke="#000000" stroke-miterlimit="10" stroke-width="1"></path><path d="M5.1125 9.2875v1.875a4.074999999999999 4.074999999999999 0 0 0 1.1937499999999999 2.88125" fill="none" stroke="#000000" stroke-miterlimit="10" stroke-width="1"></path></svg>