<svg xmlns="http://www.w3.org/2000/svg" version="1.0" preserveAspectRatio="xMidYMid meet" viewBox="-0.04 17 239.51 205.85" transform="matrix(-1, 0, 0, 1, 0, 0)">

<g transform="translate(0.000000,240.000000) scale(0.100000,-0.100000)" fill="#ffffff" stroke="none">
<path d="M2192 2210 c-12 -11 -24 -31 -28 -44 -3 -12 4 -101 15 -197 58 -496 60 -1024 5 -1494 -28 -248 -28 -247 -5 -272 40 -42 108 -42 136 0 15 24 44 240 67 497 17 192 17 822 0 1005 -17 185 -50 459 -58 479 -8 21 -55 46 -87 46 -13 0 -33 -9 -45 -20z" fill="#ffffff"/>
<path d="M915 2065 c-18 -17 -25 -35 -25 -63 0 -45 10 -56 95 -103 206 -114 451 -339 593 -542 l43 -62 -784 -3 -784 -2 -27 -26 c-35 -35 -35 -86 -1 -119 l24 -25 786 0 c432 0 785 -3 785 -6 0 -12 -94 -137 -166 -218 -125 -143 -339 -318 -473 -386 -67 -34 -91 -62 -91 -109 0 -47 35 -81 83 -81 31 0 120 45 222 113 190 127 415 352 542 542 73 109 123 203 123 230 0 15 -17 57 -37 93 -164 294 -463 591 -754 751 -87 47 -120 51 -154 16z" fill="#ffffff"/>
</g>
</svg>