<svg xmlns="http://www.w3.org/2000/svg" version="1.0" preserveAspectRatio="xMidYMid meet" viewBox="0.26 30.34 399 339.73">

<g transform="translate(0.000000,400.000000) scale(0.100000,-0.100000)" fill="#eda035" stroke="none">
<path d="M1715 3680 c-143 -11 -397 -29 -565 -40 -168 -11 -343 -27 -390 -35 -221 -40 -361 -92 -381 -142 -12 -32 -6 -174 12 -279 9 -51 9 -71 -1 -89 -14 -26 -6 -60 16 -69 8 -3 72 -1 142 4 302 23 615 30 1293 30 714 0 952 -6 1364 -36 116 -8 337 -18 492 -21 l282 -6 10 24 c5 14 5 134 -1 299 -11 323 -7 314 -119 331 -202 29 -543 42 -1209 45 -597 2 -718 0 -945 -16z m2050 -162 l100 -13 17 -185 c9 -102 17 -194 17 -204 1 -18 -5 -19 -106 -12 -60 4 -146 9 -193 12 -47 3 -195 18 -330 34 -572 68 -885 84 -1482 77 -478 -6 -712 -24 -1230 -96 -42 -5 -58 -4 -62 5 -2 6 -8 70 -12 140 l-7 129 284 23 c592 48 809 62 1309 82 690 27 694 27 1175 24 263 -2 457 -8 520 -16z" fill="#eda035"/>
<path d="M636 2971 c-34 -37 -45 -92 -45 -221 0 -111 6 -170 26 -235 7 -23 -65 34 -173 137 -40 37 -80 68 -91 68 -27 0 -43 -19 -43 -51 0 -57 447 -475 756 -707 158 -119 176 -127 421 -197 228 -66 238 -72 493 -296 150 -133 196 -184 182 -205 -23 -32 -68 -54 -112 -54 -72 0 -196 36 -295 85 -100 50 -129 55 -145 24 -21 -38 -4 -64 67 -107 38 -22 78 -43 90 -47 19 -5 21 -9 11 -24 -9 -15 -6 -69 10 -232 34 -328 32 -344 -48 -344 -69 0 -110 38 -140 129 -23 71 -111 82 -144 18 -11 -22 -13 -43 -6 -98 5 -38 9 -72 10 -76 1 -19 -35 -38 -71 -38 -56 0 -80 20 -119 99 -38 80 -68 100 -123 85 -28 -8 -38 -21 -80 -107 -27 -53 -53 -97 -59 -97 -19 0 -79 75 -109 136 -16 34 -45 124 -65 200 -47 185 -73 255 -151 405 -83 160 -198 315 -333 451 -108 107 -259 218 -299 218 -26 0 -55 -42 -47 -68 4 -10 46 -48 94 -84 182 -137 326 -319 438 -552 67 -140 86 -200 134 -414 45 -199 85 -293 161 -376 108 -119 240 -129 322 -25 l24 30 53 -33 c47 -29 63 -33 134 -36 106 -5 180 21 230 80 34 39 35 40 72 28 51 -17 138 -5 192 26 56 33 81 86 82 172 l0 63 78 -8 c170 -17 644 -8 993 20 185 15 366 27 402 27 72 0 97 14 97 55 0 47 -15 51 -247 65 -324 19 -725 9 -1073 -28 -151 -16 -277 -28 -279 -26 -6 5 -60 308 -56 312 1 1 36 -6 76 -18 42 -11 104 -20 144 -20 60 0 78 5 123 30 71 42 112 99 112 159 0 85 -33 132 -211 308 -256 252 -296 277 -567 352 -100 28 -200 60 -222 71 -75 38 -244 152 -370 249 -69 53 -146 112 -171 130 -45 35 -45 35 -38 80 31 187 37 372 15 445 -25 82 -71 110 -110 67z" fill="#eda035"/>
<path d="M3616 2938 c-9 -15 -16 -70 -21 -163 -3 -77 -13 -183 -20 -235 -31 -210 -75 -658 -86 -865 -17 -322 2 -716 37 -772 15 -24 48 -30 74 -13 12 7 15 50 16 257 1 197 7 292 27 463 52 432 77 761 77 1021 0 187 -11 252 -51 303 -25 32 -34 33 -53 4z" fill="#eda035"/>
<path d="M2774 2849 c-74 -9 -150 -45 -210 -101 l-44 -40 -35 31 c-50 43 -106 70 -183 86 -106 22 -202 -6 -278 -82 -94 -94 -128 -302 -77 -477 36 -123 154 -285 284 -390 87 -70 284 -176 327 -176 32 0 175 68 253 120 87 58 236 212 282 291 72 123 100 265 77 399 -19 113 -47 178 -102 236 -77 81 -177 116 -294 103z m133 -190 c107 -52 152 -262 93 -433 -47 -136 -204 -292 -389 -385 -73 -37 -79 -36 -184 32 -254 164 -378 382 -345 605 17 116 73 176 165 174 52 0 104 -32 165 -101 52 -59 85 -81 126 -81 48 0 61 10 131 98 89 114 146 135 238 91z" fill="#eda035"/>
</g>
</svg>